<svg xmlns="http://www.w3.org/2000/svg" width="48" height="48" viewBox="0 0 48 48">
    <g fill="none" fill-rule="evenodd">
        <g fill="#FFF" fill-rule="nonzero">
            <path d="M58.709 24c.482.002.964.009 1.447.02 1.058.016 2.112.105 3.154.28 1.041.177 2.051.512 2.997.986 1.897.967 3.44 2.51 4.406 4.407.477.945.81 1.956.987 3 .172 1.041.266 2.095.279 3.152.012.482.019.965.02 1.447l.003.728V57.7l-.003 1.004c-.002.48-.01.966-.02 1.45-.015 1.055-.105 2.108-.279 3.151-.177 1.043-.51 2.053-.987 2.997-.966 1.898-2.509 3.44-4.406 4.407-.945.478-1.955.811-2.997.99-1.042.171-2.096.263-3.154.276-.483.012-.965.02-1.447.02L56.987 72H39.014l-1.72-.002c-.483-.003-.966-.01-1.449-.023-1.056-.013-2.11-.105-3.152-.276-1.042-.179-2.052-.512-2.997-.99-1.897-.966-3.44-2.508-4.406-4.404-.477-.946-.81-1.956-.987-3-.172-1.042-.265-2.096-.278-3.152l-.016-.725L24 57.844V38.153l.004-.86c.001-.484.008-.967.02-1.45.013-1.057.105-2.109.279-3.15.177-1.044.51-2.055.987-3 .967-1.898 2.51-3.44 4.409-4.407.944-.476 1.954-.81 2.997-.989 1.041-.17 2.095-.264 3.151-.276.483-.012.966-.02 1.45-.021h21.412zm-2.771 24.882c-4 0-7.254 3.258-7.254 7.263s3.254 7.262 7.254 7.262c3.56 0 6.115-2.052 6.665-5.355.136-.816.171-1.23.148-1.907-.014-.403-.035-.69-.05-.872h-6.469v2.6h2.965l-.035.143c-.303 1.087-1.483 2.031-3.224 2.031-2.15 0-3.898-1.75-3.898-3.902s1.749-3.837 3.898-3.837c1.054 0 2.043.352 2.785 1.112l.165.169.195-.132 2.347-1.565.264-.177-.205-.243-.184-.21c-1.375-1.516-3.315-2.38-5.367-2.38zm-15.235-.001c-4 0-7.255 3.258-7.255 7.262 0 4.005 3.255 7.262 7.255 7.262 3.56 0 6.115-2.052 6.664-5.355.137-.816.173-1.23.149-1.907-.014-.403-.034-.69-.05-.871h-6.469v2.6h2.965l-.035.142c-.303 1.088-1.483 2.03-3.224 2.03-2.149 0-3.898-1.75-3.898-3.9 0-2.152 1.749-3.838 3.898-3.838 1.054 0 2.043.353 2.784 1.112l.165.169.196-.131 2.347-1.566.264-.177-.204-.243-.184-.21c-1.376-1.516-3.316-2.38-5.368-2.38zm.007-16.29c-4.004 0-7.262 3.261-7.262 7.269s3.258 7.269 7.262 7.269 7.261-3.261 7.261-7.27c0-4.007-3.257-7.268-7.26-7.268zm15.866.003h-7.221v14.522h3.258v-3.444h3.963l.215-.004c2.842-.114 4.976-2.47 4.976-5.535 0-3.125-2.132-5.539-5.19-5.539zm5.19 11.576c-.81 0-1.471.66-1.471 1.473 0 .813.66 1.473 1.472 1.473.812 0 1.472-.66 1.472-1.473 0-.812-.66-1.473-1.472-1.473zM40.71 36.04c2.103 0 3.815 1.714 3.815 3.82s-1.712 3.82-3.815 3.82c-2.104 0-3.816-1.714-3.816-3.82s1.712-3.82 3.816-3.82zm15.85-.086c1.362 0 1.777 1.283 1.777 2.179 0 .923-.415 2.179-1.777 2.179h-3.947v-4.358z" transform="translate(-24.000000, -24.000000)"/>
        </g>
    </g>
</svg>
